<?xml version="1.0" encoding="iso-8859-1"?>
<!-- Generator: Adobe Illustrator 19.0.0, SVG Export Plug-In . SVG Version: 6.00 Build 0)  -->
<svg xmlns="http://www.w3.org/2000/svg" xmlns:xlink="http://www.w3.org/1999/xlink" version="1.1" id="Layer_1" x="0px" y="0px" viewBox="0 0 455 455" style="enable-background:new 0 0 455 455;" xml:space="preserve" width="512px" height="512px">
<g>
	<g>
		<g>
			<path d="M227.5,0C101.761,0,0,101.75,0,227.5C0,353.239,101.75,455,227.5,455C353.24,455,455,353.25,455,227.5     C455,101.761,353.25,0,227.5,0z M227.5,425C118.598,425,30,336.402,30,227.5S118.598,30,227.5,30S425,118.598,425,227.5     S336.403,425,227.5,425z" fill="#FFDA44"/>
			<path d="M338.245,179.276l-67.229-9.769l-30.065-60.92c-2.527-5.12-7.741-8.361-13.451-8.361s-10.924,3.242-13.451,8.361     l-30.065,60.92l-67.229,9.769c-5.65,0.821-10.344,4.779-12.108,10.209c-1.764,5.43-0.293,11.391,3.796,15.376l48.646,47.419     l-11.484,66.957c-0.965,5.627,1.349,11.315,5.968,14.671c4.618,3.355,10.742,3.799,15.797,1.142l60.131-31.612l60.131,31.612     c5.082,2.671,11.202,2.197,15.797-1.142c4.619-3.356,6.933-9.043,5.968-14.671l-11.484-66.957l48.646-47.419     c4.089-3.985,5.561-9.946,3.796-15.376S343.896,180.098,338.245,179.276z M271.324,236.303     c-3.536,3.446-5.149,8.411-4.314,13.277l7.68,44.773l-40.209-21.139c-2.186-1.149-4.583-1.723-6.98-1.723     c-2.397,0-4.795,0.574-6.98,1.723l-40.209,21.139l7.68-44.773c0.835-4.866-0.778-9.831-4.314-13.277l-32.529-31.709l44.955-6.532     c4.886-0.71,9.108-3.779,11.294-8.206L227.5,149.12l20.104,40.737c2.186,4.427,6.408,7.496,11.294,8.206l44.955,6.532     L271.324,236.303z" fill="#FFDA44"/>
		</g>
	</g>
</g>
<g>
</g>
<g>
</g>
<g>
</g>
<g>
</g>
<g>
</g>
<g>
</g>
<g>
</g>
<g>
</g>
<g>
</g>
<g>
</g>
<g>
</g>
<g>
</g>
<g>
</g>
<g>
</g>
<g>
</g>
</svg>
